<svg xmlns="http://www.w3.org/2000/svg" version="1.1" xmlns:xlink="http://www.w3.org/1999/xlink" xmlns:svgjs="http://svgjs.dev/svgjs" width="2000" height="601" viewBox="0 0 2000 601"><g transform="matrix(1,0,0,1,-1.2121212121213603,-0.5436520319611873)"><svg viewBox="0 0 396 119" data-background-color="#ffffff" preserveAspectRatio="xMidYMid meet" height="601" width="2000" xmlns="http://www.w3.org/2000/svg" xmlns:xlink="http://www.w3.org/1999/xlink"><g id="tight-bounds" transform="matrix(1,0,0,1,0.24000000000003752,0.10764491148648858)"><svg viewBox="0 0 395.5199999999999 118.78471017702701" height="118.78471017702701" width="395.5199999999999"><g><svg viewBox="0 0 660.1693730518032 198.26564433077488" height="118.78471017702701" width="395.5199999999999"><g transform="matrix(1,0,0,1,264.64937305180325,56.31183855883006)"><svg viewBox="0 0 395.52 85.64196721311475" height="85.64196721311475" width="395.52"><g id="textblocktransform"><svg viewBox="0 0 395.52 85.64196721311475" height="85.64196721311475" width="395.52" id="textblock"><g><svg viewBox="0 0 395.52 85.64196721311475" height="85.64196721311475" width="395.52"><g transform="matrix(1,0,0,1,0,0)"><svg width="395.52" viewBox="3 -35.4 219.58 47.55" height="85.64196721311475" data-palette-color="#6f605b"><path d="M12.55 0L3.5 0 3.5-27.4 3-32.4 3.5-35.4 12.55-35.4 12.55 0ZM18.55-15.05L17.55-20.55 19.1-23.6 26.55-23.6 26.55-21.45 27-21.15Q27.55-21.65 28.52-22.33 29.5-23 30.9-23.55 32.3-24.1 34.05-24.1L34.05-24.1Q39.25-24.1 41.5-20.65L41.5-20.65Q42.4-21.9 44.22-23.03 46.05-24.15 49.3-24.15L49.3-24.15Q53.8-24.15 56.05-21.6 58.3-19.05 58.3-14.45L58.3-14.45 58.3-8.05 59.35-3.05 58.3 0 49.3 0 49.3-13.15Q49.3-15.05 48.47-16.07 47.65-17.1 45.9-17.1L45.9-17.1Q44.75-17.1 43.9-16.25 43.05-15.4 43.05-14.1L43.05-14.1 43.05 0 34.05 0 34.05-13.1Q34.05-15 33.22-16.03 32.4-17.05 30.65-17.05L30.65-17.05 27.55-16.1 27.55 0 18.55 0 18.55-15.05ZM70.84 0.5L70.84 0.5Q68.7 0.5 66.87-0.13 65.05-0.75 63.95-2.3 62.85-3.85 62.85-6.6L62.85-6.6Q62.85-9.1 64.09-10.75 65.34-12.4 67.5-13.2 69.65-14 72.34-14L72.34-14Q74.95-14 76.25-13.43 77.55-12.85 78.5-12.25L78.5-12.25 78.84-12.55Q78.84-14.05 78.59-15.05 78.34-16.05 77.45-16.57 76.55-17.1 74.65-17.1L74.65-17.1Q72.8-17.1 70.72-16.78 68.65-16.45 66.92-15.98 65.2-15.5 64.34-15.05L64.34-15.05 64.34-22.55Q65.9-23.1 68.77-23.58 71.65-24.05 75.84-24.05L75.84-24.05Q80.34-24.05 82.97-22.93 85.59-21.8 86.75-19.68 87.9-17.55 87.9-14.6L87.9-14.6 87.9-7.95 88.9-2.9 87.9 0.05 79.34 0.05 79.34-2.4 78.84-2.65Q78.45-2.25 77.45-1.5 76.45-0.75 74.8-0.13 73.15 0.5 70.84 0.5ZM75.09-6.05L75.09-6.05Q76.45-6.05 77.42-6.3 78.4-6.55 78.84-6.75L78.84-6.75 78.84-7.7Q78.84-8.35 77.92-8.95 77-9.55 75.05-9.55L75.05-9.55Q72.34-9.55 72.34-7.65L72.34-7.65Q72.34-6.85 72.95-6.45 73.55-6.05 75.09-6.05ZM103.69 12.15L103.69 12.15Q102.44 12.15 100.84 12.08 99.24 12 98.24 11.9L98.24 11.9 92.14 8.95 94.64 2.45 102.49 5Q109.14 5 109.14-0.55L109.14-0.55 109.14-1.5 108.64-1.75Q107.94-1.05 106.42-0.33 104.89 0.4 101.64 0.4L101.64 0.4Q99.29 0.4 97.09-0.78 94.89-1.95 93.52-4.55 92.14-7.15 92.14-11.3L92.14-11.3Q92.14-15.95 93.54-18.78 94.94-21.6 97.12-22.9 99.29-24.2 101.64-24.2L101.64-24.2Q104.24-24.2 105.92-23.45 107.59-22.7 108.14-22L108.14-22 108.14-23.65 117.19-23.65 117.69-20.65 117.14-17.65 117.19-0.05Q117.19 4.25 115.52 6.95 113.84 9.65 110.82 10.9 107.79 12.15 103.69 12.15ZM105.39-6.65L105.39-6.65Q106.29-6.65 107.04-6.9 107.79-7.15 108.14-7.35L108.14-7.35 108.14-16.7Q107.94-16.85 107.39-17 106.84-17.15 105.89-17.15L105.89-17.15Q103.94-17.15 102.79-15.9 101.64-14.65 101.64-11.85L101.64-11.85Q101.64-9.1 102.74-7.88 103.84-6.65 105.39-6.65ZM134.19 0.5L134.19 0.5Q130.34 0.5 127.34-0.65 124.34-1.8 122.64-4.5 120.94-7.2 120.94-11.8L120.94-11.8Q120.94-15.1 122.07-17.45 123.19-19.8 125.09-21.28 126.99-22.75 129.34-23.43 131.69-24.1 134.19-24.1L134.19-24.1Q138.49-24.1 140.81-23.25 143.14-22.4 143.89-21.9L143.89-21.9 146.39-13.95 145.39-10.85 129.89-10.85Q130.24-9 131.74-7.75 133.24-6.5 136.69-6.5L136.69-6.5Q139.39-6.5 141.34-7.1 143.29-7.7 144.39-8.15L144.39-8.15 144.39-1.45Q142.89-0.65 140.06-0.08 137.24 0.5 134.19 0.5ZM129.94-14.05L129.94-14.05 136.84-15.05 136.39-17.2Q136.04-17.4 135.37-17.5 134.69-17.6 134.19-17.6L134.19-17.6Q132.79-17.6 131.87-17 130.94-16.4 130.47-15.58 129.99-14.75 129.94-14.05ZM160.34 0.5L160.34 0.5Q156.69 0.5 153.89-0.25 151.09-1 149.54-1.8L149.54-1.8 149.54-8.75Q151.59-7.85 153.76-7.35 155.94-6.85 157.69-6.68 159.44-6.5 160.19-6.5L160.19-6.5Q161.04-6.5 161.39-6.78 161.74-7.05 161.74-7.45L161.74-7.45Q161.74-8 160.84-8.38 159.94-8.75 157.44-9.35L157.44-9.35Q155.39-9.85 153.46-10.63 151.54-11.4 150.31-12.8 149.09-14.2 149.09-16.55L149.09-16.55Q149.09-19.45 150.44-21.1 151.79-22.75 154.29-23.43 156.79-24.1 160.14-24.1L160.14-24.1Q162.04-24.1 163.69-23.9 165.34-23.7 166.04-23.6L166.04-23.6 170.69-20.6 168.44-15.25 159.69-17.15Q158.09-17.15 158.09-16.1L158.09-16.1Q158.09-15 160.39-14.45L160.39-14.45Q162.19-14.05 164.09-13.58 165.99-13.1 167.56-12.35 169.14-11.6 170.11-10.35 171.09-9.1 171.09-7.05L171.09-7.05Q171.09-3.25 168.36-1.38 165.64 0.5 160.34 0.5ZM182.49 0L173.09 0 175.49-8.45 175.49-14.8 179.19-16.3 185.69-35.35 198.64-35.35 206.69-12.95 210.54-5.85 210.54 0 201.69 0 199.19-8 184.64-8 182.49 0ZM191.59-27.15L187.94-15.7 196.44-15.7 192.64-27.15 191.59-27.15ZM222.58 0L213.53 0 213.53-27.4 213.03-32.4 213.53-35.4 222.58-35.4 222.58 0Z" opacity="1" transform="matrix(1,0,0,1,0,0)" fill="#6f605b" class="wordmark-text-0" data-fill-palette-color="primary" id="text-0"></path></svg></g></svg></g></svg></g></svg></g><g><svg viewBox="0 0 244.43135999999998 198.26564433077488" height="198.26564433077488" width="244.43135999999998"><g><svg xmlns="http://www.w3.org/2000/svg" xmlns:xlink="http://www.w3.org/1999/xlink" version="1.1" x="0" y="0" viewBox="72.99285041526966 119.31336349469662 363.6401204821303 294.9594634334571" enable-background="new 0 0 512 512" xml:space="preserve" height="198.26564433077488" width="244.43135999999998" class="icon-icon-0" data-fill-palette-color="accent" id="icon-0"><g fill="#f36527" data-fill-palette-color="accent"><g fill="#f36527" data-fill-palette-color="accent"><polygon points="312.977,221.24 249.889,306.121 208.135,280.738 207.965,279.643 145,327.158 145,343 228.879,343 313.02,343     355.092,343 397,343 397,322.084 365.52,252.795   " fill="#f36527" data-fill-palette-color="accent"></polygon><path d="M192.838 228.834c13.612 0 24.651-11.035 24.651-24.641 0-13.609-11.039-24.648-24.651-24.648-13.604 0-24.642 11.039-24.642 24.648C168.196 217.799 179.234 228.834 192.838 228.834z" fill="#f36527" data-fill-palette-color="accent"></path><path d="M436.602 378.318L436 370.326v-236.25c0-5.719-4.322-11.076-10.039-11.076h-10.763c-2.158-2.459-5.392-3.92-8.903-3.656L357.727 123H115.044c-5.709 0-10.044 5.357-10.044 11.076v7.949l-22.029 1.658c-5.938 0.447-10.396 5.639-9.947 11.584l18.744 249.008c0.445 5.947 5.633 10.414 11.568 9.967l323.326-24.338C432.605 389.457 437.049 384.264 436.602 378.318zM124 159.115V144h196.787 81.325H417v198.1V363H124V159.115zM90.377 161.646L105 160.546v195.362L90.377 161.646zM106.775 379.5c1.785 2.705 4.766 4.5 8.269 4.5h144.011l-151.084 11.373L106.775 379.5z" fill="#f36527" data-fill-palette-color="accent"></path></g></g></svg></g></svg></g></svg></g><defs></defs></svg><rect width="395.5199999999999" height="118.78471017702701" fill="none" stroke="none" visibility="hidden"></rect></g></svg></g></svg>