<svg xmlns="http://www.w3.org/2000/svg" version="1.1" xmlns:xlink="http://www.w3.org/1999/xlink" xmlns:svgjs="http://svgjs.dev/svgjs" width="128" height="128" viewBox="0 0 128 128"><g transform="matrix(0.8046875,0,0,0.8046875,12.760752631578946,22.79944760617721)"><svg viewBox="0 0 95 77" data-background-color="#ffffff" preserveAspectRatio="xMidYMid meet" height="103" width="128" xmlns="http://www.w3.org/2000/svg" xmlns:xlink="http://www.w3.org/1999/xlink"><g id="tight-bounds" transform="matrix(1,0,0,1,-0.24049999999999727,-0.22375865835446973)"><svg viewBox="0 0 95.481 77.44751731670894" height="77.44751731670894" width="95.481"><g><svg viewBox="0 0 95.481 77.44751731670894" height="77.44751731670894" width="95.481"><g><svg viewBox="0 0 95.481 77.44751731670894" height="77.44751731670894" width="95.481"><g id="textblocktransform"><svg viewBox="0 0 95.481 77.44751731670894" height="77.44751731670894" width="95.481" id="textblock"><g><svg viewBox="0 0 95.481 77.44751731670894" height="77.44751731670894" width="95.481"><g><svg viewBox="0 0 95.481 77.44751731670894" height="77.44751731670894" width="95.481"><g><svg xmlns="http://www.w3.org/2000/svg" xmlns:xlink="http://www.w3.org/1999/xlink" version="1.1" x="0" y="0" viewBox="72.99285041526966 119.31336349469662 363.6401204821303 294.9594634334571" enable-background="new 0 0 512 512" xml:space="preserve" height="77.44751731670894" width="95.481" class="icon-icon-0" data-fill-palette-color="accent" id="icon-0"><g fill="#f36527" data-fill-palette-color="accent"><g fill="#f36527" data-fill-palette-color="accent"><polygon points="312.977,221.24 249.889,306.121 208.135,280.738 207.965,279.643 145,327.158 145,343 228.879,343 313.02,343     355.092,343 397,343 397,322.084 365.52,252.795   " fill="#f36527" data-fill-palette-color="accent"></polygon><path d="M192.838 228.834c13.612 0 24.651-11.035 24.651-24.641 0-13.609-11.039-24.648-24.651-24.648-13.604 0-24.642 11.039-24.642 24.648C168.196 217.799 179.234 228.834 192.838 228.834z" fill="#f36527" data-fill-palette-color="accent"></path><path d="M436.602 378.318L436 370.326v-236.25c0-5.719-4.322-11.076-10.039-11.076h-10.763c-2.158-2.459-5.392-3.92-8.903-3.656L357.727 123H115.044c-5.709 0-10.044 5.357-10.044 11.076v7.949l-22.029 1.658c-5.938 0.447-10.396 5.639-9.947 11.584l18.744 249.008c0.445 5.947 5.633 10.414 11.568 9.967l323.326-24.338C432.605 389.457 437.049 384.264 436.602 378.318zM124 159.115V144h196.787 81.325H417v198.1V363H124V159.115zM90.377 161.646L105 160.546v195.362L90.377 161.646zM106.775 379.5c1.785 2.705 4.766 4.5 8.269 4.5h144.011l-151.084 11.373L106.775 379.5z" fill="#f36527" data-fill-palette-color="accent"></path></g></g></svg></g></svg></g></svg></g></svg></g></svg></g></svg></g><defs></defs></svg><rect width="95.481" height="77.44751731670894" fill="none" stroke="none" visibility="hidden"></rect></g></svg></g></svg>